<svg width="676" height="435" viewBox="0 0 676 435" fill="none" xmlns="http://www.w3.org/2000/svg">
<path d="M314.072 344.975H530.672C530.672 344.975 516.958 319.875 492.438 300.522C489.258 298.009 485.901 295.592 482.352 293.335C468.766 284.691 452.606 278.464 434.224 278.464C418.672 278.464 403.551 281.409 389.437 286.436C384.53 288.181 379.75 290.182 375.115 292.375C348.31 305.148 326.38 325.062 314.072 344.975Z" fill="#E28509"/>
<path opacity="0.3" d="M375.131 292.39C375.435 292.599 375.754 292.823 376.058 293.031C381.621 296.937 387.279 300.73 393.273 303.948C405.453 310.479 418.32 315.137 432.13 316.578C445.557 317.986 459.479 316.578 472.075 311.519C478.229 309.054 483.999 306.077 489.593 302.523C490.584 301.899 491.527 301.21 492.438 300.49C489.258 297.977 485.901 295.56 482.352 293.303C477.573 295.864 472.65 298.201 467.535 299.962C456.171 303.852 444.071 305.148 432.13 303.676C419.807 302.171 408.122 297.593 397.445 291.382C394.744 289.797 392.074 288.148 389.453 286.42C384.546 288.18 379.766 290.181 375.131 292.39Z" fill="#F5F5F5"/>
<path d="M56.1362 344.014H362.871C362.871 344.014 343.451 308.478 308.733 281.057C304.226 277.487 299.478 274.078 294.459 270.892C275.23 258.647 252.341 249.843 226.303 249.843C204.293 249.843 182.874 254.021 162.878 261.144C155.941 263.609 149.164 266.442 142.61 269.564C104.632 287.62 73.5589 315.825 56.1362 344.014Z" fill="#FF980F"/>
<path opacity="0.2" d="M142.61 269.548C143.058 269.852 143.489 270.156 143.921 270.46C151.801 275.999 159.825 281.361 168.313 285.923C185.576 295.176 203.781 301.771 223.33 303.82C242.351 305.804 262.059 303.804 279.882 296.664C288.593 293.175 296.761 288.965 304.705 283.938C306.096 283.058 307.438 282.082 308.733 281.073C304.226 277.503 299.478 274.094 294.459 270.908C287.698 274.526 280.729 277.856 273.472 280.337C257.376 285.859 240.257 287.684 223.33 285.603C205.875 283.458 189.332 276.991 174.211 268.187C170.375 265.946 166.602 263.609 162.894 261.16C155.941 263.593 149.164 266.426 142.61 269.548Z" fill="#FFF9E1"/>
<path d="M44.228 343.134C44.228 350.033 134.666 394.021 316.853 394.021C523 394.021 555.911 350.017 555.911 343.134H44.228Z" fill="#FFD8A5"/>
<path d="M383.97 379.775C383.97 382.688 352.482 385.057 313.656 385.057C274.815 385.057 243.342 382.688 243.342 379.775C243.342 376.861 274.831 374.492 313.656 374.492C352.498 374.492 383.97 376.861 383.97 379.775Z" fill="#C9C5C0"/>
<path d="M380.502 72.7536C382.004 71.2489 380.805 63.0691 369.457 63.0691C368.146 63.0691 366.899 63.2932 365.78 63.7094C365.061 60.9722 362.488 58.9552 359.419 58.9552C357.9 58.9552 356.494 59.4515 355.375 60.2998C353.616 55.0174 348.406 51.1917 342.268 51.1917C334.675 51.1917 328.521 57.0343 328.521 64.2537C328.521 64.3817 328.521 64.5258 328.521 64.6538C327.323 63.7574 325.804 63.2292 324.174 63.2292C320.881 63.2292 318.132 65.3582 317.349 68.2395C316.741 68.0634 316.086 67.9674 315.398 67.9674C312.345 67.9674 309.868 69.8082 309.868 72.0813C309.868 72.3054 309.9 72.5295 309.932 72.7376H380.502V72.7536Z" fill="#F5F5F5"/>
<path d="M566.141 107.249C568.187 105.2 566.557 94.1233 551.164 94.1233C549.374 94.1233 547.68 94.4435 546.161 94.9877C545.17 91.274 541.685 88.5367 537.53 88.5367C535.452 88.5367 533.55 89.2251 532.047 90.3616C529.649 83.1903 522.584 78.0039 514.257 78.0039C503.947 78.0039 495.587 85.9436 495.587 95.7241C495.587 95.9001 495.587 96.0922 495.603 96.2683C493.973 95.0518 491.927 94.3314 489.689 94.3314C485.23 94.3314 481.473 97.2287 480.434 101.135C479.603 100.91 478.708 100.782 477.781 100.782C473.641 100.782 470.268 103.28 470.268 106.369C470.268 106.673 470.3 106.961 470.364 107.249H566.141Z" fill="#F5F5F5"/>
<path d="M424.666 100.943C424.666 100.943 430.308 99.1177 431.075 99.2778C431.843 99.4539 433.633 101.551 433.745 101.823C433.873 102.079 432.77 103.488 432.77 103.488C432.77 103.488 433.121 104.816 432.306 104.912C431.507 105.008 429.573 105.168 428.774 105.168C427.959 105.168 425.417 104.72 425.417 104.72" fill="#EDEDED"/>
<path d="M387.87 112.884C387.87 112.884 394.919 111.94 400.226 110.675C405.533 109.41 409.385 109.186 409.385 109.186C409.385 109.186 413.317 108.418 418 107.41C422.668 106.385 425.753 105.569 425.753 105.569C425.753 105.569 425.641 103.536 425.577 102.351C425.513 101.167 425.257 100.638 425.257 100.638C425.257 100.638 415.203 101.647 410.472 101.583C405.741 101.535 401.153 102.223 401.153 102.223C401.153 102.223 394.072 102.511 390.859 102.703C387.647 102.879 384.13 101.583 378.727 102.959" fill="#7BAEBA"/>
<path d="M349.556 111.155C349.556 111.155 346.2 108.978 341.804 108.786C337.409 108.61 333.365 110.051 333.365 110.051C333.365 110.051 322.943 110.051 317.301 111.219C311.658 112.388 307.502 114.261 307.502 114.261C307.502 114.261 299.015 111.427 294.619 111.251C290.223 111.075 280.841 111.764 280.841 111.764L278.955 118.567C278.955 118.567 283.83 120.055 294.092 121.448C304.353 122.841 312.09 122.729 312.09 122.729C312.09 122.729 324.637 126.042 334.659 125.274C344.681 124.505 349.604 122.665 349.604 122.665C349.604 122.665 351.075 113.268 349.556 111.155Z" fill="#14385B"/>
<path d="M280.857 111.763C280.857 111.763 278.763 110.387 278.347 109.939C277.932 109.49 276.157 108.338 274.703 109.891C273.248 111.443 269.172 113.86 269.172 113.86C269.172 113.86 261.036 118.374 261.021 118.695C261.005 119.015 262.955 121.144 266.759 120.327C270.547 119.511 275.662 118.118 275.662 118.118L279.754 117.958L280.857 111.763Z" fill="#081428"/>
<path d="M350.052 111.267C350.052 111.267 346.615 109.218 342.22 109.218C337.824 109.218 333.844 110.835 333.844 110.835C333.844 110.835 323.422 111.267 317.844 112.66C312.266 114.052 308.174 116.101 308.174 116.101C308.174 116.101 299.59 113.62 295.179 113.62C290.783 113.62 281.432 114.693 281.432 114.693L279.818 121.576C279.818 121.576 284.757 122.873 295.067 123.833C305.376 124.793 313.113 124.377 313.113 124.377C313.113 124.377 325.788 127.179 335.762 125.994C345.752 124.809 350.579 122.76 350.579 122.76C350.579 122.76 351.65 113.316 350.052 111.267Z" fill="#0F222B"/>
<path d="M281.432 114.709C281.432 114.709 279.29 113.412 278.859 112.996C278.427 112.564 276.605 111.491 275.214 113.108C273.824 114.725 269.844 117.302 269.844 117.302C269.844 117.302 261.9 122.136 261.9 122.456C261.9 122.776 263.946 124.825 267.702 123.849C271.458 122.888 276.509 121.272 276.509 121.272L280.585 120.952L281.432 114.709Z" fill="#102042"/>
<path d="M377.161 102.671C377.161 102.671 376.09 97.5649 376.202 94.3955C376.314 91.226 379.431 87.7844 381.892 87.2402C384.354 86.6959 388.446 86.76 390.428 87.7845C392.41 88.8089 393.225 90.7458 393.001 91.3861C392.793 92.0264 391.115 92.8908 391.115 92.8908L382.851 104.336L377.161 102.671Z" fill="#102042"/>
<path d="M350.052 111.267C350.052 111.267 352.53 111.059 360.25 108.146C367.986 105.248 376.889 102.655 376.889 102.655C376.889 102.655 387.95 103.2 389.453 106.417C390.955 109.65 387.631 118.679 381.397 120.824C375.163 122.969 369.041 122.969 364.102 123.401C359.163 123.833 353.153 124.041 351.97 123.721C350.787 123.401 350.579 122.761 350.579 122.761C350.579 122.761 350.691 115.461 350.052 111.267Z" fill="#FF980F"/>
<path d="M391.339 92.6026C391.339 92.6026 392.042 95.1317 391.882 96.3163C391.723 97.5008 391.403 97.2767 391.403 97.2767C391.403 97.2767 392.362 100.558 391.946 100.718C391.515 100.878 390.604 101.199 390.604 101.199C390.604 101.199 390.652 104.16 389.213 104.752C387.759 105.344 381.972 104 381.972 104L381.493 100.718C381.493 100.718 380.262 100.174 380.422 98.2372C380.582 96.3003 381.061 96.0922 381.972 96.1882C382.883 96.3003 383.203 97.5809 383.203 97.5809L384.434 97.7409L385.505 94.6835C385.505 94.6835 386.256 91.9943 386.895 91.9463C387.519 91.9143 389.405 91.4821 391.339 92.6026Z" fill="#F5F5F5"/>
<path d="M424.938 103.904C424.938 103.904 430.676 102.399 431.427 102.607C432.178 102.815 433.841 105.024 433.953 105.296C434.064 105.569 432.882 106.913 432.882 106.913C432.882 106.913 433.153 108.258 432.338 108.306C431.539 108.354 429.605 108.418 428.79 108.354C427.991 108.306 425.465 107.714 425.465 107.714" fill="#F5F5F5"/>
<path d="M387.519 113.748C387.519 113.748 394.6 113.204 399.97 112.244C405.341 111.283 409.209 111.283 409.209 111.283C409.209 111.283 413.189 110.739 417.905 109.987C422.636 109.234 425.737 108.594 425.737 108.594C425.737 108.594 425.737 106.545 425.737 105.36C425.737 104.176 425.529 103.648 425.529 103.648C425.529 103.648 415.443 104.08 410.712 103.76C405.98 103.44 401.377 103.872 401.377 103.872C401.377 103.872 394.296 103.76 391.067 103.76C387.838 103.76 384.402 102.255 378.935 103.328" fill="#FF980F"/>
<path d="M443.335 64.2694C443.335 64.2694 449.169 65.9502 453.437 65.9502C457.705 65.9502 462.98 64.2694 465.01 64.2694C467.04 64.2694 474.664 64.0453 483.759 64.8297C492.854 65.614 507.671 67.1988 507.671 67.1988C507.671 67.1988 514.065 68.4313 519.468 69.2157C524.854 70.0001 535.532 71.6968 542.708 71.2326C549.901 70.7844 555.736 69.3277 555.736 69.3277L555.959 65.7261C555.959 65.7261 523.959 62.3485 518.908 61.9003C513.857 61.4521 495.555 61.116 492.071 61.116C488.586 61.116 470.956 61.4521 470.62 61.4521C470.284 61.4521 456.139 61.228 454.796 61.228C453.453 61.228 443.335 64.2694 443.335 64.2694Z" fill="#E28509"/>
<path d="M443.335 64.2694C443.335 64.2694 449.169 65.9502 453.437 65.9502C457.705 65.9502 462.98 64.2694 465.01 64.2694C465.681 64.2694 466.976 64.2374 468.718 64.2374L468.83 62.4606L468.382 61.4201C464.258 61.3561 455.819 61.228 454.796 61.228C453.437 61.244 443.335 64.2694 443.335 64.2694Z" fill="#102042"/>
<path d="M556.407 48.5343C556.407 48.5343 550.349 45.4929 545.522 45.9411C540.694 46.3893 529.234 51.2235 521.05 52.344C512.85 53.4645 511.843 53.9127 509.142 53.4645C506.441 53.0163 499.04 51.5597 491.064 52.7922C483.088 54.0248 466.256 57.8506 466.256 57.8506L467.343 62.6528C467.343 62.6528 476.582 62.6848 483.999 63.4851C491.415 64.2695 505.673 63.3731 508.359 63.4851C511.06 63.5972 518.684 66.4145 526.437 66.6386C534.189 66.8627 539.687 67.8712 546.305 67.3109C552.922 66.7506 555.959 65.7422 555.959 65.7422C555.959 65.7422 557.973 51.3356 556.407 48.5343Z" fill="#FF980F"/>
<path d="M466.24 57.8665C466.24 57.8665 465.905 54.4889 464.338 54.7931C462.772 55.0972 453.118 57.7224 450.64 58.0906C448.162 58.4587 440.906 59.2111 438.588 60.4917C436.27 61.7723 437.022 63.1169 439.931 63.7092C442.856 64.3014 449.889 65.1338 455.195 64.4615C460.502 63.7892 467.327 62.6687 467.327 62.6687L466.24 57.8665Z" fill="#0F222B"/>
<path d="M613.454 36.8809C613.454 36.8809 614.046 28.333 608.819 27.2925C603.576 26.236 607.392 30.1888 604.915 28.9082C602.437 27.6276 610.077 29.9112 604.915 30.7436C599.752 31.5759 598.953 30.7436 598.953 30.7436C598.953 30.7436 595.099 32.687 597.577 33.8075C600.054 34.928 594.825 34.912 594.825 34.912C594.825 34.912 598.999 35.2161 597.577 34.7039C596.154 34.1756 594.825 34.912 594.825 34.912C594.825 34.912 602.514 43.3366 584.277 44.0889C598.845 45.0654 586.111 44.3883 586.111 44.3883C586.111 44.3883 603.221 45.1337 586.111 45.886C600.47 48.3015 584.277 50.9335 584.277 50.9335C584.277 50.9335 569.69 49.4787 579.584 49.2546C589.462 49.0305 606.757 43.636 606.757 43.636L613.454 36.8809Z" fill="#0A2042"/>
<path d="M597.166 50.6631C597.166 50.6631 599.756 48.6462 602.105 49.4306C604.471 50.2149 607.492 52.6961 608.835 52.6961C610.177 52.6961 612.319 48.4221 612.991 45.3807C613.662 42.3393 614.557 36.7207 612.767 35.9364C610.977 35.152 607.716 34.8158 607.604 35.9364C607.492 37.0569 607.045 38.6416 607.045 38.6416L605.702 38.9778C605.702 38.9778 604.359 36.6087 602.889 37.7452C601.434 38.8657 602.665 43.2517 602.665 43.2517H597.278" fill="#F5F5F5"/>
<path d="M581.566 35.8245C581.566 35.8245 575.284 36.6568 572.215 36.1286C569.146 35.6004 565.55 34.704 563.088 33.7275C560.611 32.7511 558.741 32.3829 555.224 32.3028C551.708 32.2228 545.937 33.3593 544.147 33.0552C542.357 32.7511 535.915 31.1023 534.045 31.1023C532.175 31.1023 529.106 33.9516 528.882 34.1757C528.658 34.3998 528.051 38.5297 528.051 39.202C528.051 39.8743 528.946 40.4826 530.816 40.4826C532.686 40.4826 534.029 39.9544 534.029 39.9544L533.885 39.3621C533.885 39.3621 534.78 40.2585 535.835 39.5062C536.89 38.7538 538.904 35.9045 540.631 35.9045C542.357 35.9045 545.65 36.0486 550.205 37.4092C554.776 38.7538 556.647 39.8903 560.083 39.9544C563.52 40.0344 566.749 40.4826 569.146 41.299C571.544 42.1314 576.259 43.7801 580.527 43.3159" fill="#F5F5F5"/>
<path d="M556.407 48.5341C556.407 48.5341 556.631 53.8166 555.959 58.3146C555.288 62.8127 554.169 69.7919 554.169 69.7919C554.169 69.7919 559.028 69.4237 561.73 68.1432C564.431 66.8626 566.749 65.0697 572.95 64.9257C579.168 64.7816 585.754 63.9492 585.754 63.9492C585.754 63.9492 591.971 66.7985 594.289 63.421C596.607 60.0434 597.054 52.632 597.358 49.7027C597.358 49.7027 598.029 39.7301 595.936 37.4891C593.842 35.248 588.679 34.3356 585.674 34.7198C582.685 35.088 580.735 35.3921 580.735 35.3921C580.735 35.3921 580.878 37.9373 580.367 40.1943C579.84 42.4353 579.616 44.0201 579.616 44.0201L581.342 44.6123C581.342 44.6123 577.602 50.0869 573.19 50.9032C568.763 51.7196 563.6 51.7996 556.407 48.5341Z" fill="#E6CFA7"/>
<path d="M316.134 351.65L342.987 376.781H349.54L324.621 343.486L316.134 351.65Z" fill="#F5F5F5"/>
<path d="M287.522 346.527L267.542 376.781H273.936L297.448 350.529L287.522 346.527Z" fill="#F5F5F5"/>
<path d="M278.779 314.673C278.779 314.673 281.144 322.196 285.46 326.998C289.776 331.801 291.854 334.682 291.374 337.243C290.895 339.804 287.522 346.527 287.522 346.527C287.522 346.527 303.522 357.092 314.391 353.571C325.261 350.049 328.457 348.288 328.457 348.288C328.457 348.288 309.436 322.837 306.879 318.835C304.321 314.833 298.263 305.1 298.263 305.1" fill="#0F222B"/>
<path d="M277.468 295.4C277.468 295.4 274.575 293.447 276.078 291.366C277.484 289.397 279.402 288.148 279.402 288.148C279.402 288.148 290.048 288.597 296.249 287.444C302.451 286.292 304.913 285.187 304.913 285.187C304.913 285.187 307.422 283.442 310.395 283.25C313.368 283.058 314.232 284.163 314.232 284.163C314.232 284.163 301.093 293.815 277.468 295.4Z" fill="#F5F5F5"/>
<path d="M297.608 305.629C293.181 297.257 291.214 289.701 291.214 289.701C291.214 289.701 294.523 286.02 293.133 282.818C291.742 279.617 289.52 280.529 286.851 277.215C285.94 276.095 284.181 273.806 284.181 273.806L276.541 274.67C276.397 275.695 274.271 282.098 275.486 297.225C276.014 303.756 277.404 309.55 278.187 312.544L297.608 305.629Z" fill="#3F8BBA"/>
<path d="M275.071 290.261C275.102 291.078 275.422 296.44 275.486 297.225C275.854 301.275 276.493 305.036 277.132 308.014L281.8 306.605C281.8 306.605 278.843 301.483 278.108 299.706C277.148 297.401 275.071 290.261 275.071 290.261Z" fill="#1E4679"/>
<path d="M401.361 244.272L292.253 293.095L293.82 297.385L401.361 253.237V244.272Z" fill="#DAEFEF"/>
<path d="M268.885 374.652L275.071 375.821C275.071 375.821 277.948 378.814 279.434 379.134C280.921 379.455 285.013 380.239 285.508 380.527C286.467 381.055 285.572 381.359 285.572 381.359L265.688 381.391C265.688 381.391 266.008 378.51 266.535 377.438C267.078 376.365 268.885 374.652 268.885 374.652Z" fill="#102042"/>
<path d="M342.987 376.781C342.987 376.781 343.003 376.861 343.163 378.062C343.323 379.262 343.482 381.343 343.482 381.343H364.629C364.629 381.343 364.102 379.983 362.504 379.343C362.504 379.343 355.471 377.582 353.473 376.781C351.475 375.981 347.878 374.62 347.878 374.62L342.987 376.781Z" fill="#102042"/>
<path d="M283.862 273.806L282.423 268.972L277.148 269.372L276.541 274.67L283.862 273.806Z" fill="#F5F5F5"/>
<path d="M286.467 262.169C287.027 266.299 285.652 270.236 282.215 270.845C278.779 271.469 275.39 268.636 274.655 264.522C273.92 260.408 276.109 256.582 279.546 255.958C282.999 255.366 285.62 255.878 286.467 262.169Z" fill="#F5F5F5"/>
<path d="M489.433 212.578C489.433 212.578 492.343 243.2 480.722 270.524C466.464 304.06 442.68 307.661 442.68 307.661L442.408 372.267C442.408 372.267 441.449 376.589 435.935 376.589C430.42 376.589 426.344 376.589 424.666 375.629C422.987 374.668 422.268 370.586 422.268 370.586L422.22 307.181C422.22 307.181 406.923 302.379 400.722 285.491C393.896 266.923 395.926 246.433 395.926 246.433C395.926 246.433 397.093 240.463 400.29 239.822C403.487 239.182 409.992 239.294 410.728 240.142C411.479 240.991 412.326 243.136 412.326 245.153C412.326 247.17 412.262 262.745 414.356 271.197C418.4 287.636 430.772 289.445 430.772 289.445C430.772 289.445 442.632 287.476 453.07 271.165C464.338 253.557 461.893 221.99 461.893 221.99C461.893 221.99 462.74 215.507 466.496 210.977C470.812 205.775 480.083 206.015 483.999 206.735C487.915 207.455 489.481 211.649 489.433 212.578Z" fill="#0F222B"/>
<path d="M407.659 270.492C404.909 257.591 406.22 246.161 405.341 239.39C407.898 239.374 410.312 239.614 410.744 240.126C411.495 240.975 412.342 243.12 412.342 245.137C412.342 247.154 412.278 262.729 414.372 271.181C418.416 287.62 430.788 289.429 430.788 289.429C429.717 289.701 411.495 288.501 407.659 270.492Z" fill="#B0CCD3"/>
<path d="M435.343 308.67L442.696 307.662L442.424 372.267C442.424 372.267 441.465 376.589 435.951 376.589C434.896 376.589 433.905 376.589 432.978 376.589C434.72 373.772 435.04 370.106 435.04 368.041C435.024 364.44 435.343 308.67 435.343 308.67Z" fill="#49878D"/>
<path d="M435.871 308.462C475.208 293.047 482.496 243.376 482.177 218.837C482.097 212.754 480.386 208.48 479.284 206.335C481.154 206.335 482.832 206.495 484.015 206.719C487.931 207.439 489.497 211.633 489.449 212.562C489.449 212.562 492.359 243.184 480.738 270.508C466.48 304.044 442.696 307.646 442.696 307.646C442.696 307.646 439.739 308.254 435.871 308.462Z" fill="#49878D"/>
<path d="M461.893 221.99C461.893 221.99 475.415 221.686 482.864 219.909C490.009 218.196 489.817 217.268 489.817 217.268L489.737 225.512C489.737 225.512 483.503 227.913 475.192 229.354C466.88 230.794 462.085 230.154 462.085 230.154L461.893 221.99Z" fill="#C6E1E4"/>
<path d="M395.751 247.074C395.751 247.074 401.249 248.21 405.932 247.122C410.52 246.049 412.374 244.112 412.374 244.112L412.326 252.356C412.326 252.356 409.449 254.069 403.695 254.805C398.548 255.478 395.591 255.397 395.591 255.397L395.751 247.074Z" fill="#C6E1E4"/>
<path d="M489.817 214.547L276.541 308.27C276.541 308.27 276.637 309.95 277.244 311.631C278.092 313.984 278.779 314.673 278.779 314.673L489.849 223.751L489.817 214.547Z" fill="#DAEFEF"/>
<path d="M281.48 306.253C281.48 306.253 281.592 303.131 282.855 300.906C284.038 298.793 285.796 297.337 285.796 297.337C285.796 297.337 296.425 296.6 302.467 294.76C308.509 292.935 310.827 291.558 310.827 291.558C310.827 291.558 313.129 289.541 316.07 289.029C319.011 288.517 319.986 289.509 319.986 289.509C319.986 289.509 304.817 301.723 281.48 306.253Z" fill="#F5F5F5"/>
<path d="M253.092 143.746C251.638 143.746 250.263 143.954 249 144.338C250.503 142.402 251.382 140.161 251.382 137.759C251.382 130.588 243.694 124.793 234.231 124.793C230.251 124.793 226.607 125.818 223.698 127.547C224.737 125.306 225.136 122.953 224.769 120.616C223.25 111.139 209.616 105.457 194.335 107.906C182.666 109.779 173.412 115.877 170.359 122.857C170.582 121.208 170.71 119.527 170.71 117.798C170.71 101.087 160.129 87.5283 147.07 87.5283C134.011 87.5283 123.429 101.087 123.429 117.798C123.429 121.032 123.829 124.121 124.564 127.034C121.879 124.954 118.49 123.705 114.798 123.705C106.134 123.705 99.1175 130.508 99.1175 138.912C99.1175 140.817 99.5011 142.642 100.156 144.322C98.8937 143.938 97.5031 143.73 96.0485 143.73C90.2143 143.73 85.483 147.14 85.483 151.35C85.483 155.56 90.2143 158.969 96.0485 158.969H253.092C258.927 158.969 263.658 155.56 263.658 151.35C263.658 147.156 258.927 143.746 253.092 143.746Z" fill="#F5F5F5"/>
<path d="M180.652 272.365C180.572 272.941 180.493 273.518 180.349 274.11C178.127 284.659 168.792 292.518 159.186 292.198C159.457 294.775 159.186 297.513 158.291 300.218C157.891 301.451 157.348 302.667 156.692 303.868C155.861 305.372 154.87 306.765 153.719 308.03C148.045 314.448 139.11 317.378 131.405 315.057C130.814 314.865 130.239 314.657 129.663 314.416C127.249 313.408 125.251 311.935 123.669 310.127C122.63 310.863 121.479 311.455 120.216 311.871C119.018 312.255 117.803 312.48 116.588 312.512C111.617 312.704 106.614 310.159 103.002 305.756C101.883 304.412 100.892 302.891 100.061 301.226C99.581 300.218 99.1494 299.193 98.7978 298.089C96.7838 291.894 97.4551 285.619 100.108 280.977C98.8617 280.417 97.7109 279.713 96.6239 278.848C95.0415 277.6 93.6509 276.063 92.516 274.27C91.8607 273.262 91.2852 272.173 90.8057 271.021C90.1983 269.564 89.7508 268.027 89.479 266.41C89.2553 265.178 89.1434 263.897 89.1434 262.569C89.1434 253.38 94.578 245.665 101.947 243.472C99.9326 238.526 100.428 232.491 103.737 227.032C103.977 226.632 104.248 226.2 104.52 225.8C105.112 224.935 105.767 224.119 106.47 223.367C110.546 218.885 116.173 216.131 121.783 215.587C123.909 207.775 132.604 202.189 142.578 202.733C145.823 202.893 148.86 203.71 151.497 205.006C153.895 206.159 155.973 207.727 157.587 209.568C160.289 212.626 161.775 216.419 161.487 220.469C161.471 220.677 161.439 220.869 161.408 221.078C168.84 221.99 175.569 227.288 178.798 234.556C179.677 236.525 180.301 238.638 180.62 240.847C180.796 241.967 180.844 243.072 180.844 244.16V244.176C180.812 249.202 179.054 253.701 176.065 257.03C177.887 258.903 179.23 261.24 180.029 263.865C180.796 266.458 181.052 269.356 180.652 272.365Z" fill="#B1CDD2"/>
<path opacity="0.3" d="M103.705 227.016C112.017 229.785 121.383 229.593 130.111 228.169C131.517 227.945 132.972 227.592 134.442 227.16C134.682 227.08 134.938 227.016 135.178 226.92C143.937 224.087 153.096 217.684 157.555 209.568C155.941 207.727 153.863 206.159 151.465 205.006C150.139 206.783 148.924 208.672 147.469 210.513C143.314 215.635 138.135 218.804 132.077 220.853C132.045 220.869 131.997 220.885 131.965 220.885C131.533 221.029 131.102 221.19 130.686 221.302C123.493 223.495 114.718 224.311 106.454 223.367L103.705 227.016Z" fill="#F5F5F5"/>
<path opacity="0.3" d="M180.812 244.16V244.176C173.667 250.499 164.093 253.941 154.295 256.038C154.087 256.086 153.863 256.134 153.671 256.182C151.401 256.662 149.116 257.062 146.846 257.414C144.416 257.798 141.955 258.006 139.477 258.118C137.991 258.199 136.504 258.231 135.018 258.247H135.002C132.013 258.279 129.04 258.263 126.035 258.359C125.683 258.375 125.331 258.375 125.012 258.391C120.392 258.551 115.789 258.999 111.329 260.263C103.289 262.569 96.7838 266.106 90.7897 271.004C90.1823 269.548 89.7348 268.011 89.4631 266.394C97.8867 257.878 112.192 253.172 123.269 252.02H123.365C124.34 251.908 125.283 251.844 126.195 251.796C128.864 251.668 131.725 251.571 134.698 251.459C137.032 251.379 139.429 251.267 141.859 251.107C151.002 250.515 160.385 249.122 167.482 244.944C172.069 242.239 175.41 238.381 178.798 234.556C179.677 236.525 180.301 238.638 180.62 240.847C180.764 241.967 180.812 243.072 180.812 244.16Z" fill="#F5F5F5"/>
<path opacity="0.3" d="M180.652 272.365C179.278 272.957 177.871 273.438 176.481 273.838C167.066 276.511 160.209 274.526 151.561 270.588C150.107 269.932 148.572 269.34 146.958 268.827C145.887 268.459 144.768 268.123 143.633 267.835C141.907 267.371 140.101 266.987 138.295 266.698C136.552 266.394 134.762 266.186 132.988 266.042C131.262 265.914 129.535 265.834 127.825 265.834C127.17 265.834 126.498 265.85 125.859 265.882C121.687 266.026 117.675 266.65 114.111 267.819C107.062 270.092 102.043 274.702 96.608 278.848C95.0255 277.599 93.6349 276.063 92.5 274.27C99.8847 265.29 113.391 261.192 125.299 259.943C125.683 259.911 126.083 259.879 126.498 259.831C129.343 259.559 132.077 259.463 134.602 259.495H134.746C136.265 259.511 137.815 259.575 139.333 259.703C142.77 259.959 146.159 260.536 149.419 261.816C149.435 261.816 149.467 261.816 149.499 261.832C150.011 262.04 150.538 262.28 151.082 262.489C154.806 264.201 158.722 266.554 162.558 267.307C169.352 268.651 174.77 266.586 180.045 263.865C180.796 266.458 181.052 269.356 180.652 272.365Z" fill="#F5F5F5"/>
<path opacity="0.3" d="M158.275 300.234C157.875 301.466 157.332 302.683 156.676 303.884C155.845 305.388 154.854 306.781 153.703 308.045C151.593 305.116 149.292 302.363 145.807 300.538C144.177 299.69 142.498 298.985 140.788 298.425C139.477 297.977 138.183 297.609 136.84 297.353H136.824C135.353 297.032 133.851 296.84 132.348 296.728C131.198 296.648 130.031 296.616 128.88 296.648C126.562 296.696 124.324 296.92 122.119 297.321C120.76 297.545 119.433 297.833 118.139 298.217C116.94 298.537 115.773 298.905 114.606 299.337C110.434 300.842 106.55 303.019 102.986 305.756C101.867 304.412 100.876 302.891 100.045 301.226C104.057 297.128 109.187 293.975 114.702 291.942C115.469 291.654 116.22 291.382 117.004 291.158C119.593 290.341 122.23 289.781 124.884 289.477C126.978 289.221 129.072 289.141 131.118 289.237C131.949 289.269 132.796 289.349 133.659 289.413C136.52 289.733 139.525 290.357 142.482 291.27C143.409 291.558 144.321 291.878 145.216 292.23H145.232C150.075 294.087 154.662 296.744 158.275 300.234Z" fill="#F5F5F5"/>
<path d="M156.628 275.31C146.382 289.317 141.363 290.389 131.341 304.412C131.757 300.266 132.348 296.616 132.78 293.991C133.132 291.846 133.643 289.189 134.282 286.163C143.314 272.701 150.458 266.442 155.541 252.98C150.187 262.905 144.768 265.642 136.568 275.567C137.911 269.228 139.238 262.248 139.701 255.429C143.985 247.201 147.07 238.99 147.837 230.762C146.159 236.461 143.377 242.159 139.845 247.858C139.877 232.443 131.357 219.573 131.23 219.573C131.357 219.573 138.534 232.555 136.616 248.066C133.611 242.719 131.949 238.718 127.329 233.371C132.444 241.087 133.563 247.458 135.625 255.173C134.33 262.12 132.077 269.228 129.823 275.695C127.281 266.154 128.065 260.888 122.998 251.347C127.777 264.281 124.916 272.941 126.163 285.891C125.012 289.045 124.021 291.814 123.222 294.023C122.294 296.664 121.048 300.33 119.929 304.492C115.213 290.87 118.123 285.107 113.791 271.485C117.004 288.885 111.521 298.441 117.643 315.841C114.926 330.296 121.815 345.375 122.246 345.375C128.241 345.375 134.251 345.375 140.245 345.375C139.829 345.375 130.638 330.456 130.942 316.065C138.806 298.185 145.935 293.223 156.628 275.31Z" fill="#0F222B"/>
<path d="M146.846 345.391C146.846 345.391 149.547 339.772 148.093 336.011C147.997 338.412 147.054 342.157 144.145 343.71C145.391 337.675 140.708 335.482 140.708 335.482C140.708 335.482 142.786 339.964 141.028 343.086C139.989 334.122 136.984 323.301 128.96 321.012C132.284 323.509 138.103 335.594 136.233 342.462C134.57 334.538 128.96 332.041 128.96 332.041C128.96 332.041 133.947 338.284 132.908 343.086C131.038 337.883 128.017 338.3 128.017 338.3C128.017 338.3 131.453 341.421 129.999 343.918C128.544 341.213 125.427 341.629 125.427 341.629C125.427 341.629 127.297 343.614 126.674 345.375H146.846V345.391Z" fill="#8AC9CE"/>
<path d="M532.335 347.44C532.335 347.44 530.624 343.886 531.552 341.517C531.615 343.038 532.207 345.407 534.045 346.383C533.262 342.557 536.219 341.181 536.219 341.181C536.219 341.181 534.908 344.014 536.027 345.983C536.682 340.316 538.585 333.481 543.651 332.025C541.542 333.609 537.865 341.245 539.048 345.583C540.103 340.573 543.651 339.004 543.651 339.004C543.651 339.004 540.503 342.958 541.158 345.983C542.341 342.686 544.243 342.958 544.243 342.958C544.243 342.958 542.069 344.927 542.996 346.511C543.923 344.799 545.889 345.055 545.889 345.055C545.889 345.055 544.706 346.303 545.106 347.424H532.335V347.44Z" fill="#8AC9CE"/>
<path d="M43.5727 291.238C43.5407 292.647 43.5727 294.103 43.6846 295.608C44.0202 300.122 45.0592 304.924 47.4249 309.022C49.9503 313.424 54.0103 316.994 60.308 318.498C60.7076 318.594 61.0753 318.674 61.4749 318.739C61.5069 318.739 61.5228 318.739 61.5548 318.755C61.8425 318.803 62.1302 318.851 62.4179 318.899C62.7216 318.931 63.0413 318.979 63.345 318.995C63.5688 319.027 63.7926 319.043 64.0004 319.043C64.1123 319.059 64.2242 319.059 64.336 319.059C64.4639 319.075 64.5918 319.075 64.7037 319.075C64.8635 319.075 65.0393 319.075 65.1992 319.075C65.4869 319.075 65.7426 319.075 66.0304 319.043C66.0783 319.059 66.1422 319.043 66.1902 319.043C66.2541 319.043 66.3181 319.043 66.382 319.027C66.5099 319.027 66.6058 319.027 66.7337 319.011C66.7976 319.011 66.8775 319.011 66.9414 318.979C67.1812 318.963 67.421 318.947 67.6607 318.899C67.8525 318.883 68.0603 318.851 68.2681 318.819C68.2841 318.819 68.3161 318.803 68.3321 318.803C68.4919 318.787 68.6518 318.755 68.8116 318.723C69.0034 318.69 69.1952 318.658 69.371 318.61C69.5149 318.594 69.6588 318.562 69.8026 318.514C70.0584 318.466 70.2981 318.402 70.5379 318.322C70.7137 318.274 70.8895 318.226 71.0654 318.178C71.2891 318.13 71.5129 318.05 71.7207 317.97C71.8166 317.954 71.8965 317.922 71.9764 317.874C72.44 317.714 72.9195 317.538 73.383 317.33C73.5269 317.266 73.6708 317.202 73.8146 317.138C73.8466 317.138 73.8786 317.106 73.9105 317.09C74.0544 317.026 74.1823 316.962 74.3101 316.898C74.3421 316.882 74.39 316.866 74.422 316.85C74.5819 316.77 74.7417 316.69 74.9015 316.61C75.0933 316.497 75.3011 316.385 75.477 316.289C75.6528 316.193 75.8126 316.081 75.9885 315.985C76.1483 315.905 76.2762 315.809 76.436 315.713C76.5959 315.633 76.7397 315.537 76.8676 315.425C77.1233 315.265 77.3631 315.089 77.6029 314.913C77.9066 314.689 78.2102 314.465 78.498 314.224C79.0254 313.808 79.5369 313.344 80.0484 312.88C80.4161 312.528 80.7677 312.175 81.1194 311.807C81.1513 311.775 81.1833 311.711 81.2312 311.663C81.6308 311.231 82.0145 310.783 82.3981 310.319C82.6378 310.031 82.8616 309.742 83.0694 309.438C83.2452 309.214 83.4051 308.974 83.5649 308.75C83.8686 308.334 84.1563 307.918 84.4121 307.469C84.524 307.293 84.6359 307.117 84.7478 306.925C85.2912 306.029 85.7867 305.116 86.2343 304.156C86.2822 304.06 86.3302 303.98 86.3621 303.884C86.6339 303.307 86.8896 302.731 87.1134 302.123C87.2093 301.867 87.3052 301.611 87.4171 301.355C87.4651 301.242 87.513 301.098 87.545 300.97C87.6569 300.682 87.7528 300.41 87.8487 300.122C87.9126 299.946 87.9606 299.77 88.0085 299.61C88.1364 299.21 88.2643 298.793 88.3602 298.377C88.472 298.009 88.552 297.657 88.6479 297.273C88.7118 296.985 88.7917 296.68 88.8557 296.392C89.0155 295.64 89.1594 294.856 89.2713 294.071C89.4471 292.871 89.559 291.638 89.6069 290.389C89.6229 290.277 89.6229 290.165 89.6229 290.053C89.6389 289.525 89.6549 289.013 89.6389 288.485C89.6069 286.612 89.3991 284.771 89.0155 282.978C88.7917 281.874 88.504 280.785 88.1683 279.713C87.0495 276.191 85.3551 272.877 83.3252 269.772C82.446 268.427 81.519 267.131 80.5439 265.866C75.9085 259.847 70.2981 254.741 65.7746 250.627C63.6008 252.628 61.5708 254.677 59.7166 256.742C59.0453 257.494 58.39 258.231 57.7826 258.983C55.0653 262.233 52.7316 265.514 50.7975 268.732C50.1262 269.836 49.5188 270.941 48.9433 272.013C48.4478 272.957 47.9843 273.902 47.5527 274.83C47.0253 275.951 46.5617 277.055 46.1461 278.144C45.1871 280.625 44.5157 283.01 44.1002 285.251C43.9563 286.003 43.8444 286.74 43.7645 287.46V287.492C43.7325 287.828 43.7006 288.148 43.6846 288.453C43.6526 288.821 43.6366 289.189 43.6206 289.573C43.6047 290.117 43.5887 290.678 43.5727 291.238Z" fill="#B1CDD2"/>
<path opacity="0.3" d="M57.7985 259.031C59.8605 261 62.2581 262.553 64.9594 263.609C71.1453 266.074 77.6029 267.131 83.3571 269.804C82.478 268.459 81.5509 267.163 80.5759 265.898C77.1873 264.634 73.6068 263.737 70.3461 262.681C66.3181 261.352 62.6737 259.607 59.7326 256.79C59.0613 257.526 58.4219 258.279 57.7985 259.031Z" fill="#F5F5F5"/>
<path opacity="0.3" d="M46.1781 278.176C49.4548 280.929 53.2591 282.546 57.7026 283.234C57.8944 283.266 58.1022 283.282 58.2781 283.314C58.9974 283.426 59.7326 283.474 60.4519 283.522C61.379 283.57 62.3061 283.602 63.2331 283.602C63.7926 283.602 64.352 283.586 64.9115 283.554H64.9275C68.7157 283.426 72.5039 282.882 76.2442 282.53C80.7517 282.13 84.8916 282.226 89.0635 283.01C88.8397 281.906 88.552 280.817 88.2163 279.745C82.3342 277.872 74.438 278.608 69.5469 278.16C69.2591 278.128 68.9714 278.112 68.6837 278.064H68.6677C68.1083 278 67.5329 277.92 66.9734 277.824H66.9574C66.414 277.744 65.8865 277.648 65.359 277.536C64.9275 277.456 64.4959 277.359 64.0643 277.247C61.6987 276.671 59.4129 275.807 57.319 274.574C56.8395 274.302 56.3919 274.014 55.9444 273.694C54.8894 272.973 53.8984 272.173 52.9713 271.229C52.1881 270.444 51.4848 269.628 50.8135 268.78C50.1422 269.884 49.5348 270.989 48.9593 272.061C51.1012 274.302 53.6267 276.319 56.4079 277.808C57.0313 278.144 57.6547 278.464 58.31 278.736C59.5568 279.28 60.8355 279.713 62.1622 280.033C62.6577 280.145 63.1532 280.241 63.6487 280.337C62.0343 280.305 60.4199 280.225 58.8375 280.001C58.1981 279.905 57.5588 279.809 56.9354 279.665C53.4509 278.928 50.1901 277.52 47.5847 274.878C47.0572 275.983 46.5937 277.087 46.1781 278.176Z" fill="#F5F5F5"/>
<path opacity="0.3" d="M43.5727 291.238C43.5407 292.646 43.5727 294.103 43.6846 295.608C46.0502 297 48.6077 298.009 51.293 298.505C51.9803 298.633 52.6836 298.729 53.4029 298.793C55.0812 298.953 56.8075 298.905 58.5498 298.633C58.9654 298.569 59.381 298.489 59.7966 298.393C60.2441 298.297 60.6917 298.201 61.1232 298.073C65.7267 296.904 70.0264 294.935 74.438 293.255C74.9335 293.063 75.445 292.871 75.9405 292.694C76.3241 292.566 76.7077 292.438 77.0754 292.31C81.3911 290.838 85.467 290.149 89.6229 290.421C89.6389 290.309 89.6389 290.197 89.6389 290.085C89.6549 289.557 89.6709 289.045 89.6549 288.517C85.1474 287.78 80.5279 288.741 75.9565 290.181C75.5569 290.293 75.1733 290.421 74.7737 290.565C71.5129 291.654 68.3001 292.935 65.1992 293.959C64.0643 294.327 62.8495 294.711 61.6507 295.015C60.8515 295.224 60.0523 295.416 59.2371 295.576C56.6637 296.088 54.0263 296.248 51.5168 295.784C51.1172 295.704 50.7016 295.608 50.302 295.48C49.0872 295.144 47.9204 294.599 46.8015 293.879C45.6186 293.095 44.5637 292.198 43.5727 291.238Z" fill="#F5F5F5"/>
<path d="M47.4249 309.022C49.9503 313.424 54.0103 316.994 60.308 318.498C74.5659 321.892 86.9855 310.063 89.2872 294.087C84.476 305.324 73.1593 322.356 47.4249 309.022Z" fill="#95B8BC"/>
<path d="M51.7885 289.077C51.8844 288.933 52.1082 289.029 52.0602 289.189C51.4369 292.278 50.4299 295.144 52.6197 297.945C53.6746 299.306 55.2251 300.314 56.5518 301.387C57.0952 301.835 57.6387 302.347 58.1182 302.891C58.1662 299.914 58.7096 297.177 59.5888 294.295C59.6847 292.23 60.0043 290.213 59.6207 288.052C59.1732 285.619 58.2301 283.122 57.335 280.817C55.8964 277.087 54.9214 272.205 57.5907 268.796C57.7026 268.635 57.9264 268.812 57.8785 268.972C57.1592 272.189 56.9034 274.574 57.9424 277.776C58.7256 280.193 60.1003 282.354 60.8995 284.739C61.2351 285.747 61.5548 286.868 61.8106 288.02C63.6168 282.962 64.9594 278.08 63.2971 272.541C63.2811 272.493 63.345 272.477 63.361 272.509C64.9434 274.686 65.4709 277.039 65.4389 279.456C65.6308 279.264 65.8066 279.072 65.9824 278.896C68.3481 276.431 70.0903 273.646 69.1473 270.06C69.0833 269.804 69.4669 269.628 69.5788 269.884C70.6178 271.965 70.5858 274.302 69.6268 276.463C69.0993 277.648 68.38 278.48 67.4849 279.408C66.6378 280.273 65.9664 281.297 65.1832 282.21C64.8635 284.099 64.2881 286.003 63.6807 287.844C63.0733 289.685 62.5298 291.43 62.0983 293.143C62.0183 293.655 61.9065 294.151 61.7466 294.631C60.7716 298.969 60.5478 303.179 61.7786 308.078C61.9384 308.734 62.1302 309.406 62.3061 310.079C62.4659 310.335 62.6257 310.607 62.7696 310.879C63.5688 308.446 64.9594 305.757 66.0463 304.268C67.2611 302.603 69.7387 300.186 71.5609 298.185C75.3011 294.055 75.0614 290.854 74.39 286.692C74.3581 286.5 74.5819 286.404 74.6937 286.564C77.0914 290.373 75.8766 295.24 74.1023 297.641C75.0774 297.449 76.1003 297.417 77.0754 297.161C79.473 296.552 80.7837 294.952 81.2153 292.534C81.2312 292.422 81.3911 292.454 81.3911 292.566C81.5509 297.625 76.6758 298.169 72.9035 299.418C72.8875 299.434 72.9195 299.402 72.9035 299.418C70.6977 301.691 67.9485 304.844 66.7656 307.133C66.2541 308.11 65.6467 310.927 65.5508 312.015C65.4549 313.184 65.391 315.505 65.6627 316.69C66.9255 319.363 68.2202 322.132 68.5239 325.109C69.1632 331.416 66.8455 337.883 65.7586 344.11H60.6917C60.6437 338.828 62.6098 333.881 62.7856 328.631C62.8975 324.965 62.2261 320.259 60.7076 316.626C59.5408 313.856 58.8375 310.575 58.4379 307.613C57.8145 306.381 57.287 305.1 56.4079 303.98C55.1132 302.331 53.2431 301.226 51.9803 299.562C49.6786 296.536 49.5987 292.182 51.7885 289.077Z" fill="#0F222B"/>
<path d="M329.065 187.702C334.595 185.685 340.03 190.664 340.03 190.664C340.03 190.664 339.087 197.979 333.556 200.012C328.042 202.045 321.313 197.531 321.313 197.531C321.313 197.531 323.534 189.719 329.065 187.702Z" fill="#B1CDD2"/>
<path d="M323.998 196.522L343.85 188.727C344.106 188.631 344.378 188.743 344.49 188.999C344.585 189.255 344.458 189.543 344.218 189.639C344.202 189.639 344.202 189.639 344.202 189.639L323.998 196.522Z" fill="#49878D"/>
<path d="M197.42 219.301C202.023 220.758 203.062 226.712 203.062 226.712C203.062 226.712 198.794 230.986 194.207 229.546C189.604 228.089 187.494 221.798 187.494 221.798C187.494 221.798 192.832 217.86 197.42 219.301Z" fill="#B1CDD2"/>
<path d="M189.731 222.502L206.515 227.384C206.722 227.448 206.85 227.673 206.786 227.881C206.722 228.089 206.499 228.217 206.291 228.153H206.275L189.731 222.502Z" fill="#49878D"/>
<path d="M319.922 234.188C322.911 235.132 323.582 238.99 323.582 238.99C323.582 238.99 320.817 241.775 317.828 240.831C314.839 239.886 313.48 235.804 313.48 235.804C313.48 235.804 316.933 233.259 319.922 234.188Z" fill="#B1CDD2"/>
<path d="M314.935 236.269L325.836 239.438C325.98 239.47 326.06 239.614 326.012 239.758C325.98 239.902 325.82 239.982 325.692 239.934H325.676L314.935 236.269Z" fill="#49878D"/>
<path d="M565.438 254.037C568.427 254.981 569.098 258.839 569.098 258.839C569.098 258.839 566.333 261.624 563.344 260.68C560.355 259.735 558.996 255.654 558.996 255.654C558.996 255.654 562.449 253.108 565.438 254.037Z" fill="#B1CDD2"/>
<path d="M560.451 256.118L571.352 259.287C571.496 259.319 571.576 259.463 571.528 259.607C571.496 259.751 571.336 259.831 571.208 259.783H571.192L560.451 256.118Z" fill="#49878D"/>
<path d="M607.029 275.711C608.883 271.725 614.397 271.485 614.397 271.485C614.397 271.485 617.754 275.871 615.884 279.857C614.03 283.843 608.083 285.011 608.083 285.011C608.083 285.011 605.158 279.697 607.029 275.711Z" fill="#B1CDD2"/>
<path d="M608.995 283.058L615.42 268.443C615.5 268.251 615.708 268.171 615.9 268.251C616.092 268.331 616.171 268.555 616.091 268.731V268.747L608.995 283.058Z" fill="#49878D"/>
<path d="M231.178 193.689C229.452 193.865 225.855 187.446 222.131 187.846C218.423 188.247 215.738 191.576 216.121 195.29C216.521 199.003 219.845 201.693 223.554 201.309C227.278 200.908 229.468 193.865 231.178 193.689Z" fill="#84B7B6"/>
<path d="M217.48 195.13C217.48 195.13 217.48 195.018 217.48 194.842C217.48 194.745 217.48 194.617 217.496 194.489C217.496 194.345 217.528 194.201 217.544 194.025C217.56 193.865 217.608 193.689 217.64 193.497C217.704 193.321 217.736 193.113 217.815 192.921C217.847 192.825 217.879 192.729 217.927 192.633C217.975 192.536 218.007 192.44 218.055 192.344C218.103 192.248 218.151 192.152 218.199 192.056C218.247 191.96 218.295 191.864 218.359 191.768C218.423 191.672 218.471 191.576 218.535 191.496C218.599 191.416 218.663 191.32 218.727 191.24C218.791 191.144 218.87 191.08 218.934 191C219.014 190.92 219.078 190.84 219.142 190.776C219.222 190.712 219.286 190.632 219.366 190.568C219.43 190.504 219.51 190.439 219.59 190.391C219.67 190.343 219.734 190.279 219.813 190.231C219.893 190.183 219.957 190.135 220.021 190.103C220.149 190.007 220.293 189.959 220.405 189.895C220.469 189.863 220.517 189.831 220.565 189.815C220.613 189.799 220.661 189.783 220.709 189.767C220.884 189.703 220.98 189.671 220.98 189.671C220.98 189.671 220.884 189.719 220.709 189.799C220.661 189.815 220.613 189.847 220.565 189.863C220.517 189.895 220.469 189.927 220.405 189.959C220.293 190.023 220.165 190.087 220.037 190.199C219.973 190.247 219.909 190.295 219.829 190.343C219.766 190.391 219.702 190.455 219.638 190.52C219.574 190.584 219.494 190.632 219.43 190.712C219.366 190.776 219.302 190.856 219.238 190.92C219.174 190.984 219.11 191.08 219.046 191.16C218.982 191.24 218.918 191.32 218.87 191.4C218.806 191.496 218.759 191.576 218.711 191.656C218.663 191.752 218.615 191.848 218.567 191.928C218.519 192.024 218.471 192.12 218.439 192.216C218.407 192.312 218.343 192.408 218.327 192.504C218.295 192.6 218.263 192.697 218.231 192.793C218.199 192.889 218.183 192.985 218.151 193.081C218.087 193.273 218.071 193.449 218.039 193.625C218.023 193.801 217.991 193.961 217.991 194.121C217.991 194.281 217.975 194.425 217.975 194.537C217.975 194.665 217.975 194.761 217.991 194.858C218.007 195.05 218.023 195.146 218.023 195.146L217.48 195.13Z" fill="#1E4679"/>
<path d="M220.149 194.841C220.149 194.841 220.149 194.745 220.133 194.569C220.133 194.489 220.133 194.361 220.133 194.233C220.133 194.169 220.133 194.105 220.149 194.025C220.165 193.961 220.165 193.881 220.181 193.801C220.197 193.641 220.229 193.481 220.277 193.305C220.293 193.209 220.325 193.129 220.357 193.033C220.389 192.937 220.405 192.857 220.453 192.76C220.485 192.664 220.533 192.584 220.565 192.488C220.613 192.392 220.661 192.312 220.709 192.216C220.757 192.12 220.804 192.04 220.868 191.944C220.916 191.848 220.98 191.768 221.044 191.688C221.108 191.608 221.172 191.512 221.236 191.448C221.3 191.368 221.38 191.304 221.444 191.224C221.508 191.144 221.588 191.08 221.668 191.016C221.748 190.952 221.811 190.888 221.891 190.824C221.971 190.76 222.035 190.712 222.115 190.648C222.195 190.599 222.275 190.551 222.339 190.503C222.483 190.407 222.627 190.327 222.771 190.263C222.898 190.183 223.042 190.135 223.154 190.087C223.266 190.039 223.362 190.007 223.458 189.975C223.618 189.911 223.714 189.879 223.714 189.879C223.714 189.879 223.618 189.911 223.458 189.991C223.378 190.023 223.282 190.071 223.17 190.119C223.058 190.183 222.93 190.231 222.803 190.311C222.675 190.391 222.531 190.471 222.403 190.583C222.339 190.632 222.259 190.696 222.195 190.744C222.131 190.808 222.067 190.872 221.987 190.936C221.923 191 221.843 191.064 221.78 191.144C221.716 191.208 221.652 191.288 221.588 191.352C221.524 191.432 221.46 191.512 221.412 191.592C221.348 191.672 221.3 191.752 221.252 191.832C221.188 191.912 221.14 192.008 221.108 192.088C221.06 192.168 221.012 192.264 220.98 192.344C220.948 192.44 220.9 192.52 220.868 192.6C220.836 192.696 220.804 192.776 220.789 192.873C220.757 192.953 220.741 193.049 220.725 193.129C220.709 193.209 220.677 193.305 220.677 193.385C220.661 193.545 220.629 193.705 220.629 193.849C220.629 193.929 220.613 193.993 220.613 194.057C220.613 194.121 220.613 194.185 220.613 194.249C220.613 194.361 220.613 194.473 220.629 194.553C220.645 194.729 220.661 194.825 220.661 194.825L220.149 194.841Z" fill="#1E4679"/>
<path d="M225.504 194.281C225.504 194.281 225.504 194.233 225.504 194.137C225.504 194.089 225.52 194.025 225.536 193.961C225.552 193.897 225.584 193.817 225.616 193.737C225.648 193.657 225.696 193.577 225.744 193.497C225.792 193.417 225.855 193.337 225.919 193.257C225.983 193.177 226.063 193.097 226.143 193.033C226.223 192.969 226.319 192.905 226.399 192.841C226.495 192.793 226.591 192.729 226.687 192.697C226.735 192.681 226.783 192.665 226.83 192.649C226.878 192.633 226.926 192.617 226.974 192.601C227.07 192.569 227.166 192.569 227.262 192.553C227.358 192.537 227.438 192.553 227.518 192.537C227.598 192.537 227.678 192.553 227.742 192.553C227.806 192.553 227.853 192.569 227.901 192.585C227.997 192.601 228.045 192.617 228.045 192.617C228.045 192.617 227.997 192.601 227.901 192.585C227.853 192.585 227.806 192.569 227.742 192.569C227.678 192.569 227.598 192.553 227.534 192.569C227.454 192.569 227.374 192.569 227.278 192.585C227.198 192.601 227.102 192.617 227.006 192.649C226.958 192.665 226.91 192.681 226.862 192.697C226.815 192.713 226.767 192.745 226.719 192.761C226.623 192.809 226.543 192.857 226.447 192.921C226.367 192.985 226.287 193.049 226.207 193.113C226.127 193.177 226.063 193.257 225.999 193.321C225.935 193.401 225.887 193.465 225.839 193.545C225.792 193.625 225.76 193.689 225.728 193.769C225.696 193.833 225.68 193.913 225.664 193.961C225.664 194.025 225.648 194.073 225.648 194.105C225.648 194.201 225.648 194.249 225.648 194.249L225.504 194.281Z" fill="#1E4679"/>
<path d="M226.703 191.272C226.703 191.272 226.687 191.272 226.639 191.256C226.607 191.256 226.543 191.224 226.463 191.208C226.383 191.208 226.303 191.192 226.191 191.192C226.079 191.192 225.967 191.192 225.839 191.224C225.776 191.24 225.712 191.24 225.648 191.256C225.584 191.272 225.504 191.288 225.44 191.32C225.36 191.336 225.296 191.368 225.232 191.4C225.168 191.432 225.088 191.448 225.008 191.496C224.944 191.528 224.864 191.576 224.785 191.608C224.721 191.656 224.641 191.704 224.577 191.752C224.497 191.8 224.433 191.848 224.369 191.912C224.305 191.976 224.241 192.008 224.177 192.072L224.001 192.264C223.937 192.328 223.905 192.392 223.841 192.457C223.73 192.585 223.666 192.729 223.586 192.873C223.554 192.937 223.522 193.017 223.506 193.081C223.49 193.161 223.442 193.225 223.426 193.289C223.394 193.433 223.362 193.561 223.346 193.689C223.33 193.817 223.33 193.929 223.33 194.025C223.33 194.121 223.346 194.217 223.346 194.281C223.362 194.425 223.362 194.505 223.362 194.505L223.01 194.537C223.01 194.537 223.01 194.441 223.01 194.281C223.01 194.201 222.994 194.105 223.01 193.993C223.026 193.881 223.042 193.753 223.058 193.625C223.09 193.497 223.138 193.353 223.17 193.193C223.202 193.113 223.234 193.049 223.266 192.969C223.298 192.889 223.33 192.809 223.378 192.745C223.474 192.601 223.554 192.441 223.682 192.312C223.746 192.248 223.794 192.168 223.857 192.104L224.049 191.928C224.113 191.864 224.193 191.816 224.257 191.768C224.321 191.72 224.401 191.656 224.481 191.624C224.561 191.576 224.625 191.528 224.705 191.496C224.785 191.464 224.864 191.432 224.928 191.4C225.008 191.368 225.088 191.336 225.152 191.32C225.232 191.288 225.296 191.272 225.376 191.256C225.456 191.24 225.52 191.224 225.6 191.208C225.664 191.192 225.744 191.192 225.808 191.176C225.935 191.16 226.063 191.16 226.159 191.16C226.271 191.16 226.367 191.192 226.431 191.192C226.511 191.208 226.559 191.24 226.607 191.24C226.671 191.272 226.703 191.272 226.703 191.272Z" fill="#1E4679"/>
<path d="M218.007 195.066C218.007 195.066 218.023 195.178 218.039 195.354C218.039 195.45 218.071 195.546 218.087 195.674C218.103 195.786 218.151 195.93 218.183 196.074C218.215 196.234 218.279 196.378 218.343 196.554C218.423 196.714 218.487 196.891 218.567 197.067C218.615 197.147 218.663 197.243 218.711 197.323C218.759 197.403 218.822 197.499 218.87 197.579C218.918 197.659 218.982 197.755 219.046 197.835C219.11 197.915 219.174 198.011 219.238 198.075C219.302 198.155 219.366 198.235 219.446 198.315C219.526 198.395 219.59 198.459 219.67 198.539C219.734 198.619 219.813 198.683 219.893 198.747C219.973 198.811 220.037 198.875 220.133 198.939C220.213 199.003 220.293 199.052 220.373 199.116C220.453 199.18 220.533 199.212 220.613 199.26C220.693 199.308 220.773 199.356 220.836 199.388C220.916 199.42 220.996 199.452 221.06 199.484C221.204 199.564 221.348 199.596 221.46 199.628C221.524 199.644 221.572 199.676 221.636 199.692C221.684 199.708 221.748 199.708 221.78 199.724C221.971 199.772 222.067 199.788 222.067 199.788C222.067 199.788 221.955 199.772 221.78 199.74C221.732 199.74 221.684 199.724 221.62 199.724C221.556 199.708 221.508 199.692 221.444 199.676C221.316 199.644 221.172 199.612 221.012 199.548C220.932 199.516 220.852 199.484 220.773 199.468C220.693 199.436 220.613 199.388 220.533 199.356C220.453 199.308 220.357 199.276 220.277 199.228C220.197 199.18 220.101 199.132 220.021 199.068C219.925 199.019 219.845 198.955 219.766 198.891C219.686 198.827 219.59 198.763 219.51 198.699C219.43 198.635 219.35 198.555 219.27 198.491C219.19 198.411 219.11 198.331 219.046 198.251C218.966 198.171 218.902 198.091 218.822 198.011C218.759 197.931 218.679 197.851 218.615 197.755C218.551 197.675 218.487 197.579 218.423 197.499C218.359 197.419 218.311 197.323 218.247 197.227C218.135 197.051 218.055 196.875 217.959 196.698C217.879 196.522 217.799 196.362 217.752 196.202C217.704 196.042 217.64 195.898 217.608 195.77C217.576 195.642 217.528 195.514 217.528 195.418C217.496 195.226 217.48 195.13 217.48 195.13L218.007 195.066Z" fill="#1E4679"/>
<path d="M220.581 194.793C220.581 194.793 220.597 194.889 220.613 195.066C220.613 195.162 220.645 195.258 220.661 195.37C220.677 195.418 220.677 195.482 220.693 195.546C220.709 195.61 220.725 195.674 220.757 195.754C220.789 195.898 220.852 196.042 220.916 196.202C220.948 196.282 220.98 196.362 221.028 196.442C221.06 196.522 221.108 196.602 221.156 196.682C221.204 196.762 221.252 196.842 221.3 196.922C221.348 197.002 221.412 197.082 221.46 197.163C221.508 197.243 221.588 197.307 221.636 197.387C221.7 197.467 221.764 197.531 221.827 197.611C221.891 197.675 221.971 197.755 222.035 197.819C222.115 197.883 222.179 197.947 222.259 198.011C222.339 198.075 222.419 198.123 222.499 198.187C222.579 198.251 222.659 198.299 222.739 198.347C222.818 198.395 222.898 198.443 222.978 198.491C223.058 198.523 223.138 198.571 223.218 198.603C223.378 198.683 223.522 198.731 223.666 198.779C223.81 198.827 223.937 198.859 224.065 198.891C224.177 198.923 224.289 198.939 224.369 198.971C224.545 199.003 224.641 199.019 224.641 199.019C224.641 199.019 224.545 199.003 224.369 198.987C224.289 198.971 224.177 198.971 224.049 198.939C223.937 198.907 223.794 198.891 223.65 198.843C223.506 198.795 223.346 198.763 223.186 198.683C223.106 198.651 223.026 198.619 222.93 198.587C222.85 198.539 222.771 198.507 222.675 198.459C222.579 198.427 222.499 198.363 222.419 198.315C222.339 198.267 222.243 198.219 222.163 198.155C222.083 198.091 222.003 198.027 221.923 197.979C221.843 197.915 221.764 197.851 221.684 197.771C221.604 197.707 221.524 197.627 221.46 197.563C221.396 197.483 221.316 197.419 221.252 197.339C221.188 197.259 221.124 197.179 221.06 197.099C220.996 197.018 220.948 196.938 220.884 196.858C220.82 196.778 220.789 196.698 220.741 196.602C220.693 196.522 220.645 196.442 220.613 196.362C220.533 196.202 220.469 196.042 220.421 195.898C220.389 195.818 220.373 195.754 220.341 195.69C220.325 195.626 220.309 195.546 220.293 195.482C220.261 195.354 220.229 195.242 220.213 195.162C220.181 194.986 220.165 194.889 220.165 194.889L220.581 194.793Z" fill="#1E4679"/>
<path d="M225.68 194.265C225.68 194.265 225.696 194.313 225.712 194.409C225.728 194.457 225.744 194.489 225.76 194.554C225.776 194.602 225.823 194.666 225.855 194.73C225.903 194.794 225.951 194.858 226.015 194.922C226.063 194.986 226.143 195.05 226.207 195.114C226.287 195.162 226.367 195.242 226.447 195.274C226.527 195.322 226.623 195.37 226.719 195.418C226.815 195.45 226.91 195.498 227.006 195.514C227.054 195.53 227.102 195.53 227.15 195.546C227.198 195.562 227.246 195.562 227.294 195.562C227.39 195.578 227.486 195.562 227.582 195.562C227.678 195.562 227.758 195.546 227.837 195.53C227.917 195.514 227.981 195.498 228.045 195.482C228.109 195.466 228.157 195.434 228.205 195.418C228.285 195.386 228.333 195.354 228.333 195.354C228.333 195.354 228.285 195.37 228.205 195.418C228.157 195.434 228.109 195.466 228.045 195.482C227.981 195.498 227.917 195.53 227.837 195.546C227.758 195.562 227.678 195.578 227.582 195.594C227.486 195.594 227.39 195.61 227.294 195.61C227.246 195.61 227.198 195.61 227.134 195.594C227.086 195.594 227.038 195.578 226.974 195.578C226.862 195.562 226.767 195.53 226.671 195.498C226.575 195.466 226.463 195.418 226.367 195.37C226.271 195.322 226.191 195.258 226.095 195.21C226.015 195.146 225.935 195.082 225.871 195.018C225.808 194.954 225.744 194.874 225.696 194.81C225.648 194.746 225.616 194.682 225.584 194.618C225.552 194.554 225.536 194.489 225.52 194.441C225.504 194.345 225.488 194.297 225.488 194.297L225.68 194.265Z" fill="#1E4679"/>
<path d="M227.294 196.986C227.294 196.986 227.278 197.002 227.246 197.018C227.214 197.035 227.166 197.067 227.086 197.099C227.006 197.115 226.926 197.163 226.83 197.195C226.719 197.211 226.607 197.243 226.479 197.259C226.415 197.259 226.351 197.275 226.271 197.275C226.207 197.275 226.127 197.275 226.047 197.275C225.967 197.275 225.887 197.259 225.808 197.259C225.728 197.243 225.648 197.243 225.568 197.227C225.488 197.211 225.408 197.195 225.328 197.179C225.248 197.147 225.168 197.131 225.072 197.099C224.992 197.083 224.912 197.034 224.832 197.002C224.753 196.97 224.673 196.938 224.593 196.89L224.353 196.746C224.273 196.698 224.209 196.634 224.145 196.586C224.001 196.49 223.889 196.346 223.762 196.234C223.698 196.17 223.666 196.106 223.602 196.042C223.554 195.978 223.506 195.914 223.458 195.85C223.394 195.706 223.314 195.578 223.25 195.45C223.202 195.322 223.154 195.194 223.122 195.098C223.09 194.986 223.074 194.89 223.058 194.809C223.026 194.649 223.01 194.569 223.01 194.569L223.362 194.537C223.362 194.537 223.378 194.617 223.394 194.761C223.41 194.825 223.41 194.922 223.442 195.018C223.474 195.114 223.506 195.226 223.538 195.338C223.586 195.45 223.65 195.578 223.698 195.706C223.73 195.77 223.778 195.834 223.809 195.898C223.857 195.962 223.889 196.026 223.937 196.09C224.049 196.202 224.145 196.346 224.273 196.442C224.337 196.49 224.401 196.554 224.465 196.602L224.673 196.746C224.737 196.794 224.816 196.826 224.896 196.874C224.976 196.922 225.04 196.954 225.12 196.986C225.2 197.018 225.28 197.05 225.36 197.083C225.44 197.099 225.52 197.131 225.6 197.147C225.68 197.179 225.76 197.179 225.839 197.195C225.919 197.211 225.983 197.227 226.063 197.227C226.143 197.227 226.207 197.243 226.287 197.243C226.351 197.243 226.431 197.243 226.495 197.243C226.623 197.243 226.735 197.211 226.846 197.195C226.958 197.179 227.038 197.147 227.118 197.115C227.182 197.083 227.246 197.051 227.278 197.034C227.278 196.986 227.294 196.986 227.294 196.986Z" fill="#1E4679"/>
<path d="M228.205 193.993L213.612 195.898C213.42 195.93 213.244 195.786 213.228 195.594C213.212 195.402 213.34 195.226 213.532 195.21H213.548L228.205 193.993Z" fill="#1E4679"/>
<path d="M130.51 354.163C130.51 356.372 121.144 358.165 109.571 358.165C97.9986 358.165 88.6319 356.372 88.6319 354.163C88.6319 351.954 97.9986 350.161 109.571 350.161C121.144 350.161 130.51 351.954 130.51 354.163Z" fill="#C9C5C0"/>
<path d="M161.136 354.883C166.918 354.883 171.605 353.987 171.605 352.882C171.605 351.777 166.918 350.881 161.136 350.881C155.354 350.881 150.666 351.777 150.666 352.882C150.666 353.987 155.354 354.883 161.136 354.883Z" fill="#C9C5C0"/>
<path d="M70.9854 351.682C76.7676 351.682 81.455 350.786 81.455 349.681C81.455 348.576 76.7676 347.68 70.9854 347.68C65.2032 347.68 60.5158 348.576 60.5158 349.681C60.5158 350.786 65.2032 351.682 70.9854 351.682Z" fill="#C9C5C0"/>
<path d="M482.976 370.81C482.976 371.915 478.293 372.811 472.506 372.811C466.72 372.811 462.037 371.915 462.037 370.81C462.037 369.706 466.72 368.81 472.506 368.81C478.277 368.81 482.976 369.706 482.976 370.81Z" fill="#C9C5C0"/>
<path d="M536.043 351.602C536.043 352.706 533.134 353.603 529.554 353.603C525.973 353.603 523.064 352.706 523.064 351.602C523.064 350.497 525.973 349.601 529.554 349.601C533.134 349.601 536.043 350.497 536.043 351.602Z" fill="#C9C5C0"/>
<path d="M377.88 356.612C388.853 356.612 397.749 355.551 397.749 354.243C397.749 352.934 388.853 351.874 377.88 351.874C366.907 351.874 358.012 352.934 358.012 354.243C358.012 355.551 366.907 356.612 377.88 356.612Z" fill="#D3CEC9"/>
<path d="M562.864 298.633C562.816 299.017 562.753 299.402 562.673 299.802C561.186 306.845 554.968 312.096 548.543 311.887C548.719 313.6 548.543 315.441 547.935 317.234C547.664 318.05 547.312 318.867 546.864 319.667C546.321 320.675 545.65 321.604 544.882 322.436C541.094 326.726 535.132 328.679 529.985 327.126C529.586 326.998 529.202 326.854 528.818 326.694C527.22 326.022 525.877 325.045 524.822 323.829C524.119 324.325 523.368 324.709 522.521 324.997C521.721 325.254 520.906 325.398 520.091 325.43C516.766 325.558 513.426 323.861 511.012 320.932C510.261 320.035 509.605 319.011 509.046 317.906C508.726 317.234 508.439 316.546 508.199 315.809C506.856 311.679 507.304 307.485 509.062 304.38C508.231 304.012 507.448 303.532 506.728 302.955C505.673 302.123 504.746 301.082 503.979 299.898C503.531 299.226 503.164 298.505 502.844 297.721C502.444 296.744 502.141 295.72 501.965 294.647C501.821 293.831 501.741 292.967 501.741 292.086C501.741 285.955 505.37 280.801 510.293 279.344C508.95 276.047 509.27 272.013 511.476 268.363C511.635 268.091 511.827 267.803 512.003 267.547C512.387 266.971 512.834 266.427 513.298 265.93C516.015 262.937 519.771 261.112 523.528 260.744C524.95 255.526 530.752 251.796 537.402 252.164C539.576 252.276 541.59 252.82 543.364 253.685C544.962 254.453 546.353 255.493 547.44 256.726C549.246 258.759 550.237 261.304 550.045 264.009C550.029 264.137 550.013 264.282 549.997 264.41C554.968 265.018 559.444 268.555 561.602 273.406C562.193 274.718 562.609 276.127 562.817 277.6C562.928 278.352 562.96 279.088 562.96 279.809V279.825C562.944 283.17 561.762 286.18 559.78 288.405C560.994 289.653 561.889 291.222 562.433 292.967C562.96 294.696 563.136 296.616 562.864 298.633Z" fill="#B1CDD2"/>
<path opacity="0.3" d="M511.492 268.363C517.038 270.22 523.304 270.076 529.122 269.132C530.065 268.988 531.04 268.748 532.015 268.46C532.175 268.411 532.351 268.363 532.511 268.299C538.361 266.411 544.467 262.137 547.456 256.71C546.369 255.478 544.994 254.437 543.38 253.669C542.501 254.853 541.686 256.118 540.71 257.334C537.945 260.76 534.477 262.873 530.433 264.234C530.417 264.25 530.385 264.266 530.353 264.266C530.065 264.362 529.777 264.458 529.49 264.554C524.678 266.01 518.828 266.571 513.314 265.93L511.492 268.363Z" fill="#F5F5F5"/>
<path opacity="0.3" d="M562.976 279.809C558.213 284.051 551.819 286.34 545.282 287.732C545.154 287.764 544.994 287.796 544.866 287.828C543.348 288.148 541.829 288.421 540.311 288.645C538.696 288.901 537.05 289.029 535.388 289.109C534.397 289.157 533.406 289.189 532.415 289.189H532.399C530.401 289.221 528.419 289.205 526.421 289.269C526.181 289.285 525.957 289.285 525.733 289.301C522.648 289.413 519.579 289.701 516.606 290.55C511.236 292.086 506.904 294.455 502.892 297.721C502.492 296.744 502.189 295.72 502.013 294.647C507.639 288.965 517.182 285.827 524.582 285.043H524.646C525.302 284.963 525.925 284.915 526.533 284.899C528.307 284.819 530.225 284.755 532.207 284.675C533.757 284.627 535.372 284.547 536.986 284.435C543.092 284.051 549.358 283.106 554.089 280.321C557.158 278.512 559.38 275.935 561.634 273.39C562.225 274.702 562.641 276.111 562.848 277.584C562.928 278.336 562.976 279.072 562.976 279.809Z" fill="#F5F5F5"/>
<path opacity="0.3" d="M562.864 298.633C561.937 299.018 561.01 299.338 560.083 299.61C553.785 301.387 549.214 300.058 543.444 297.433C542.469 296.985 541.446 296.6 540.375 296.248C539.671 296.008 538.92 295.784 538.153 295.592C537.002 295.288 535.803 295.032 534.589 294.824C533.422 294.632 532.239 294.471 531.04 294.375C529.889 294.295 528.738 294.247 527.603 294.247C527.156 294.247 526.724 294.263 526.293 294.279C523.512 294.375 520.826 294.792 518.445 295.576C513.745 297.097 510.389 300.17 506.76 302.939C505.705 302.107 504.778 301.066 504.011 299.882C508.934 293.895 517.965 291.158 525.909 290.326C526.165 290.31 526.437 290.278 526.708 290.246C528.61 290.053 530.433 290.005 532.111 290.021H532.207C533.23 290.037 534.253 290.069 535.276 290.149C537.578 290.326 539.831 290.71 542.005 291.558C542.021 291.558 542.037 291.558 542.053 291.574C542.405 291.702 542.756 291.862 543.108 292.022C545.602 293.159 548.207 294.744 550.764 295.24C555.304 296.136 558.916 294.76 562.433 292.951C562.96 294.696 563.136 296.616 562.864 298.633Z" fill="#F5F5F5"/>
<path opacity="0.3" d="M547.935 317.234C547.664 318.05 547.312 318.867 546.864 319.667C546.321 320.675 545.65 321.604 544.882 322.436C543.476 320.483 541.941 318.642 539.608 317.426C538.521 316.866 537.402 316.401 536.267 316.017C535.404 315.729 534.525 315.473 533.629 315.313H533.613C532.638 315.105 531.631 314.961 530.624 314.897C529.857 314.849 529.074 314.817 528.307 314.849C526.756 314.881 525.27 315.025 523.799 315.297C522.888 315.441 522.009 315.649 521.146 315.905C520.347 316.113 519.563 316.353 518.796 316.658C516.015 317.666 513.41 319.107 511.044 320.948C510.293 320.051 509.637 319.027 509.078 317.922C511.747 315.185 515.184 313.088 518.86 311.727C519.372 311.535 519.883 311.359 520.395 311.199C522.121 310.655 523.895 310.271 525.653 310.079C527.06 309.902 528.451 309.854 529.809 309.918C530.353 309.95 530.928 309.998 531.504 310.047C533.422 310.255 535.42 310.671 537.402 311.295C538.009 311.487 538.633 311.695 539.224 311.935H539.24C542.453 313.136 545.522 314.913 547.935 317.234Z" fill="#F5F5F5"/>
<path d="M546.832 300.602C539.991 309.95 536.635 310.671 529.953 320.035C530.225 317.266 530.625 314.833 530.912 313.072C531.152 311.647 531.488 309.87 531.919 307.853C537.945 298.873 542.709 294.679 546.113 285.699C542.533 292.326 538.92 294.151 533.454 300.778C534.349 296.536 535.228 291.894 535.548 287.332C538.409 281.841 540.471 276.351 540.982 270.86C539.863 274.67 538.009 278.464 535.644 282.274C535.66 271.981 529.985 263.385 529.905 263.385C529.985 263.385 534.78 272.045 533.502 282.402C531.488 278.832 530.385 276.159 527.3 272.589C530.704 277.744 531.456 281.986 532.83 287.14C531.967 291.782 530.465 296.52 528.962 300.842C527.268 294.471 527.795 290.966 524.407 284.595C527.604 293.239 525.685 299.017 526.517 307.661C525.749 309.758 525.078 311.615 524.551 313.088C523.927 314.849 523.096 317.298 522.345 320.083C519.196 310.991 521.13 307.149 518.253 298.041C520.395 309.662 516.734 316.033 520.826 327.655C519.004 337.307 523.623 347.376 523.895 347.376C527.907 347.376 531.903 347.376 535.915 347.376C535.644 347.376 529.506 337.419 529.697 327.815C534.924 315.873 539.688 312.56 546.832 300.602Z" fill="#0F222B"/>
<path d="M272.418 267.057C272.785 267.791 275.628 269.198 277.004 269.81C276.851 268.281 276.545 265.038 276.545 264.304C276.545 263.386 277.004 263.386 277.463 261.551C277.83 260.082 279.756 261.551 280.673 262.468L284.801 258.339C285.106 257.574 285.718 255.861 285.718 255.127C285.718 254.209 284.801 253.75 283.425 253.291C282.049 252.832 281.59 252.832 280.673 252.832C279.756 252.832 277.921 253.291 275.628 253.75C273.335 254.209 274.252 254.209 271.501 255.585C268.749 256.962 270.125 257.88 269.666 258.797C269.208 259.715 270.125 262.009 270.583 263.386C271.042 264.763 271.959 266.139 272.418 267.057Z" fill="black"/>
</svg>
