<svg width="231" height="231" viewBox="0 0 231 231" fill="none" xmlns="http://www.w3.org/2000/svg">
<g clip-path="url(#clip0_8_10)">
<path d="M44.1672 135.792C44.9289 133.858 47.1132 132.907 49.0473 133.669C49.7439 133.943 50.4487 134.219 51.1591 134.495C53.0969 135.247 54.0573 137.427 53.3055 139.365C52.9473 140.287 52.2662 140.988 51.4413 141.388C50.533 141.829 49.4508 141.906 48.4352 141.511C47.7139 141.231 46.9976 140.951 46.2899 140.672C44.3563 139.911 43.4053 137.726 44.1672 135.792Z" fill="#0F222B"/>
<path d="M27.2063 131.25C26.9043 130.146 27.1217 128.964 27.7968 128.04L37.4271 114.847C38.1607 113.842 39.3431 113.265 40.587 113.304L71.7147 114.298C75.4 110.001 79.6923 105.683 84.3448 101.592L72.064 93.1706C70.7697 92.2832 70.1624 90.6851 70.5402 89.1613L73.5519 77.0108C74.0026 75.192 75.7232 73.9813 77.5883 74.1723L121.236 78.6491C136.686 72.5968 154.759 69.1814 169.88 69.4853C178.67 69.6638 189.812 71.2453 192.977 77.7653C196.143 84.2871 190.492 94.02 185.194 101.037C185.192 101.038 185.191 101.04 185.19 101.042C185.18 101.055 185.17 101.068 185.159 101.081C179.034 109.184 168.936 119.46 156.29 128.245L158.717 130.223C162.506 127.997 167.443 128.223 171.046 131.156C173.289 132.983 174.685 135.573 174.978 138.45C175.271 141.327 174.427 144.146 172.601 146.387C171.59 147.629 170.344 148.611 168.945 149.291C167.819 149.837 166.592 150.188 165.309 150.318C162.434 150.612 159.615 149.769 157.374 147.944C157.374 147.943 157.373 147.943 157.373 147.943C155.132 146.116 153.735 143.527 153.44 140.651C153.279 139.073 153.462 137.512 153.959 136.055L149.663 132.554C146.576 134.429 143.37 136.194 140.058 137.802C137.056 139.259 133.901 140.611 130.62 141.854L132.165 143.112C135.954 140.888 140.891 141.113 144.494 144.046C149.121 147.815 149.82 154.647 146.051 159.276C145.025 160.535 143.774 161.503 142.401 162.169C138.728 163.952 134.191 163.577 130.822 160.834C130.822 160.834 130.821 160.834 130.821 160.833C127.22 157.899 126 153.111 127.412 148.948L122.208 144.71C121.902 144.802 121.591 144.891 121.283 144.982L103.457 174.601C103.076 175.234 102.524 175.732 101.876 176.046C101.473 176.242 101.033 176.366 100.575 176.408L86.6158 177.684C85.4701 177.789 84.3398 177.364 83.5465 176.531C82.7538 175.697 82.3857 174.547 82.5472 173.408L85.7924 150.54C80.4367 150.58 75.6372 150.165 71.7343 149.313C71.7146 149.308 71.6963 149.301 71.6769 149.297C68.4416 148.603 63.7453 147.155 57.7116 144.991C55.7551 144.289 54.738 142.135 55.4398 140.178C56.1414 138.221 58.2961 137.205 60.2529 137.906C66.0154 139.973 70.4114 141.334 73.3178 141.952C73.3366 141.956 73.3543 141.962 73.373 141.966C77.0037 142.756 81.6227 143.106 86.8624 143L88.1452 133.961C88.4371 131.903 90.3429 130.471 92.3998 130.763C94.458 131.055 95.8893 132.96 95.5977 135.018L90.668 169.757L97.9913 169.087L130.254 115.479C131.326 113.698 133.639 113.123 135.419 114.195C137.2 115.267 137.775 117.579 136.703 119.36L127.241 135.083C130.568 133.848 133.755 132.497 136.77 131.033C151.071 124.09 166.177 112.204 176.377 100.027C172.607 97.6149 169.553 94.2076 167.562 90.1054C165.57 86.0023 164.781 81.4964 165.219 77.0433C151.717 77.4664 135.865 80.8309 122.743 86.152C120.534 87.0473 118.386 88.0005 116.357 88.9852C108.532 92.7841 100.427 98.0411 92.9186 104.186C92.8923 104.208 92.866 104.23 92.8396 104.251C92.8346 104.255 92.83 104.259 92.8252 104.263C86.5828 109.385 80.8755 115.003 76.3137 120.518C73.1424 124.351 70.5872 128.076 68.9242 131.29C67.9699 133.136 65.6991 133.857 63.8525 132.903C62.0063 131.948 61.2842 129.677 62.2397 127.831C63.2599 125.859 64.5196 123.792 66.0029 121.648L42.3334 120.893L36.675 128.645C37.4793 128.981 38.3744 129.353 39.3424 129.753C41.2632 130.546 42.1772 132.747 41.3835 134.668C40.5896 136.589 38.3889 137.503 36.4684 136.709C32.2409 134.962 29.3756 133.729 29.3471 133.716C28.2965 133.261 27.5079 132.355 27.2063 131.25ZM135.574 154.997C136.984 156.145 139.067 155.932 140.215 154.523C141.363 153.112 141.151 151.029 139.741 149.881C138.714 149.046 137.331 148.931 136.212 149.475C135.794 149.677 135.413 149.973 135.1 150.355C135.1 150.356 135.1 150.356 135.099 150.357L135.098 150.357C133.952 151.768 134.165 153.849 135.574 154.997ZM160.927 139.885C161.016 140.761 161.443 141.549 162.126 142.107C162.809 142.663 163.668 142.919 164.545 142.83C165.421 142.741 166.209 142.315 166.765 141.633C167.322 140.95 167.579 140.09 167.49 139.213C167.401 138.336 166.975 137.548 166.293 136.992C165.266 136.156 163.883 136.041 162.764 136.585C162.346 136.788 161.964 137.084 161.651 137.467C161.094 138.15 160.837 139.008 160.927 139.885ZM180.979 94.0202C185.902 86.8812 186.864 82.407 186.206 81.0524C185.548 79.6982 181.438 77.6859 172.785 77.1373C172.336 80.4247 172.859 83.7798 174.333 86.8163C175.807 89.8514 178.119 92.3373 180.979 94.0202ZM90.3628 96.592C96.0596 92.1192 102.04 88.1364 107.982 84.8566L80.0714 81.9934L78.4742 88.4395L90.3628 96.592Z" fill="#0F222B"/>
<path d="M144.002 83.1598C149.229 80.6224 155.546 82.8102 158.083 88.0371C160.621 93.2638 158.433 99.5809 153.206 102.118C147.979 104.656 141.662 102.468 139.125 97.241C136.588 92.0143 138.776 85.6972 144.002 83.1598ZM149.919 95.3476C151.413 94.6226 152.037 92.8177 151.313 91.3246C150.588 89.8315 148.783 89.2063 147.29 89.9311C145.796 90.6561 145.171 92.461 145.896 93.9541C146.621 95.4472 148.426 96.0725 149.919 95.3476Z" fill="#0F222B"/>
<path d="M123.71 97.1564C125.58 96.2487 127.832 97.0289 128.739 98.8983L131.027 103.611C131.935 105.48 131.155 107.732 129.285 108.64C127.415 109.548 125.164 108.768 124.256 106.898L121.968 102.185C121.06 100.316 121.84 98.0642 123.71 97.1564Z" fill="#0F222B"/>
<path d="M110.534 103.553C112.404 102.645 114.655 103.425 115.563 105.295L117.851 110.008C118.758 111.877 117.979 114.129 116.109 115.037C114.24 115.944 111.988 115.165 111.08 113.295L108.792 108.582C107.884 106.713 108.664 104.461 110.534 103.553Z" fill="#0F222B"/>
<path d="M97.3575 109.95C99.2268 109.042 101.479 109.822 102.387 111.692L104.674 116.405C105.582 118.274 104.802 120.526 102.933 121.434C101.063 122.341 98.8111 121.561 97.9035 119.692L95.6155 114.979C94.708 113.11 95.4881 110.857 97.3575 109.95Z" fill="#0F222B"/>
</g>
<defs>
<clipPath id="clip0_8_10">
<rect width="172.549" height="172.549" fill="white" transform="matrix(-0.899594 0.436727 0.436727 0.899594 155.224 0)"/>
</clipPath>
</defs>
</svg>
