<svg width="60" height="87" viewBox="0 0 60 87" fill="none" xmlns="http://www.w3.org/2000/svg">
<g clip-path="url(#clip0_5_306)">
<path d="M29.85 0C5.07999 0 -2.12001 25.77 0.509987 41C3.13999 56.23 29.85 86.52 29.85 86.52C29.85 86.52 56.55 56.14 59.18 41C61.81 25.86 54.61 0 29.85 0ZM29.85 50.85C25.9834 50.9155 22.1848 49.8287 18.938 47.728C15.6912 45.6273 13.1431 42.6077 11.6183 39.0539C10.0934 35.5001 9.66085 31.5728 10.3756 27.7723C11.0904 23.9718 12.9202 20.47 15.6319 17.713C18.3436 14.9559 21.8146 13.0684 25.6027 12.2907C29.3909 11.5131 33.3248 11.8805 36.9034 13.3463C40.482 14.812 43.5433 17.3097 45.6976 20.5212C47.8518 23.7328 49.0014 27.5129 49 31.38C49.0294 36.4974 47.0314 41.4183 43.4429 45.0668C39.8543 48.7153 34.9672 50.7946 29.85 50.85Z" fill="#F14D24"/>
</g>
<defs>
<clipPath id="clip0_5_306">
<rect width="59.68" height="86.52" fill="white"/>
</clipPath>
</defs>
</svg>
