<svg width="160" height="232" viewBox="0 0 160 232" fill="none" xmlns="http://www.w3.org/2000/svg">
<path d="M159.972 81.0818C160.037 79.0639 159.99 77.044 159.832 75.0313C158.797 61.54 155.446 48.2723 148.304 36.6534C138.636 20.9543 122.945 9.95727 105.478 4.54957C101.822 3.33718 98.0609 2.47166 94.2429 1.9645C84.2185 0.846626 75.0964 -0.83018 64.862 0.476331C42.8264 3.30594 24.0715 15.7073 11.9554 34.229C-0.38456 53.0931 -2.28732 70.8183 2.23873 92.2186C4.74311 104.096 8.72352 115.596 13.3895 126.768C16.4745 134.16 19.8953 141.44 23.5399 148.545C25.4147 152.206 33.1516 171.692 36.8313 172.412L59.9512 176.932L83.0362 181.46C104.722 165.146 125.82 146.931 141.973 124.993C151.732 111.69 159.497 97.4166 159.972 81.0818Z" fill="#4C867C"/>
<path d="M94.2429 1.96451C94.2429 1.96451 36.7333 13.0594 31.2839 61.568C25.8344 110.077 46.9886 174.354 46.9886 174.354L54.8236 175.891C54.8236 175.891 58.2583 71.3144 68.4227 48.5168C68.4227 48.5168 81.4762 5.74431 94.2429 1.96451Z" fill="white"/>
<path d="M94.2429 1.96451C94.2429 1.96451 143.302 33.9146 130.018 80.9141C116.733 127.914 72.8508 179.426 72.8508 179.426L65.0159 177.896C65.0159 177.896 101.357 79.7613 100.553 54.8188C100.553 54.8048 104.631 10.2787 94.2429 1.96451Z" fill="white"/>
<path d="M35.1174 188.104L36.3975 174.333" stroke="#A87244" stroke-width="3.56" stroke-miterlimit="10"/>
<path d="M77.9295 196.481L81.9449 183.248" stroke="#A87244" stroke-width="3.56" stroke-miterlimit="10"/>
<g style="mix-blend-mode:screen" opacity="0.63">
<path d="M68.5556 56.9078C49.6679 67.7023 28.6815 66.5075 21.6301 54.2389C14.5787 41.9703 24.2254 23.2809 43.1202 12.4865C62.0149 1.69203 83.0292 2.89374 90.0527 15.1624C97.0761 27.431 87.4433 46.1064 68.5556 56.9078Z" fill="#FFF9F8"/>
<path d="M22.9243 70.3712C21.7351 74.7588 17.4468 77.4208 13.3475 76.3099C9.24818 75.199 6.89771 70.7205 8.08693 66.3469C9.27616 61.9732 13.5714 59.3043 17.6707 60.4152C21.77 61.526 24.1205 65.9835 22.9243 70.3712Z" fill="#FFF9F8"/>
</g>
<path d="M75.1104 220.92L80.0701 195.622L34.138 186.644L28.9474 213.088C28.719 214.191 28.7256 215.33 28.9666 216.43C29.2077 217.53 29.6778 218.567 30.3465 219.474C34.3129 225.063 44.911 227.858 49.9337 228.871C51.4657 229.186 52.4801 229.339 52.627 229.36C60.5528 230.911 66.6179 230.227 70.7172 227.327C72.949 225.832 74.5214 223.539 75.1104 220.92Z" fill="#7D5533"/>
<path d="M82.5465 185.253L34.2779 175.36C33.9143 175.289 33.5686 175.146 33.2609 174.939C32.9531 174.733 32.6894 174.468 32.485 174.159C32.2807 173.851 32.1397 173.504 32.0704 173.141C32.0012 172.777 32.0049 172.404 32.0813 172.041L32.3402 170.798C32.4109 170.433 32.554 170.085 32.761 169.776C32.9679 169.467 33.2346 169.202 33.5454 168.997C33.8562 168.792 34.2048 168.651 34.5708 168.582C34.9369 168.514 35.3129 168.519 35.677 168.597L83.9456 178.504C84.3086 178.577 84.6535 178.72 84.9605 178.927C85.2675 179.133 85.5304 179.398 85.7341 179.707C85.9377 180.016 86.078 180.362 86.1469 180.725C86.2157 181.088 86.2118 181.461 86.1352 181.823L85.8834 183.066C85.811 183.43 85.6668 183.776 85.4591 184.084C85.2515 184.392 84.9846 184.655 84.6739 184.858C84.3633 185.062 84.0153 185.202 83.65 185.27C83.2847 185.337 82.9096 185.332 82.5465 185.253Z" fill="#007366"/>
<path d="M72.0254 195.88L64.6172 231.889" stroke="#A87244" stroke-width="1.44" stroke-miterlimit="10"/>
<path d="M61.9309 193.812L54.5228 229.821" stroke="#A87244" stroke-width="1.44" stroke-miterlimit="10"/>
<path d="M51.8435 191.744L44.4353 227.753" stroke="#A87244" stroke-width="1.44" stroke-miterlimit="10"/>
<path d="M41.756 189.676L34.3479 225.678" stroke="#A87244" stroke-width="1.44" stroke-miterlimit="10"/>
<path d="M75.2643 231.065L24.89 220.725" stroke="#A87244" stroke-width="1.44" stroke-miterlimit="10"/>
<path d="M77.3349 220.99L26.9607 210.65" stroke="#A87244" stroke-width="1.44" stroke-miterlimit="10"/>
<path d="M79.4056 210.915L29.0383 200.575" stroke="#A87244" stroke-width="1.44" stroke-miterlimit="10"/>
<path d="M81.4832 200.834L31.109 190.5" stroke="#A87244" stroke-width="1.44" stroke-miterlimit="10"/>
<g style="mix-blend-mode:multiply" opacity="0.39">
<path d="M75.1104 220.92L80.0701 195.622L72.7529 194.224L69.1223 212.711C68.5452 215.333 66.9827 217.634 64.7571 219.139C60.6787 222.031 54.5927 222.716 46.6669 221.165C46.513 221.165 45.5056 220.99 43.9736 220.676C40.322 219.928 33.7183 218.251 28.8634 215.233C28.9614 216.777 29.4949 218.262 30.4024 219.516C34.3688 225.105 44.967 227.9 49.9897 228.913C51.5217 229.228 52.536 229.381 52.6829 229.402C60.6088 230.953 66.6739 230.269 70.7732 227.369C72.9927 225.854 74.5452 223.545 75.1104 220.92Z" fill="#634329"/>
</g>
<path d="M79.1118 200.512L33.4175 191.115C32.6154 190.949 31.9122 190.471 31.4623 189.787C31.0124 189.104 30.8526 188.269 31.018 187.468C31.0989 187.071 31.2575 186.694 31.4845 186.358C31.7116 186.022 32.0027 185.735 32.3412 185.511C32.6797 185.288 33.059 185.134 33.4574 185.057C33.8557 184.98 34.2653 184.983 34.6627 185.065L80.357 194.441C81.1594 194.607 81.8632 195.085 82.3142 195.768C82.7652 196.452 82.9267 197.286 82.7634 198.088C82.684 198.487 82.5265 198.867 82.2998 199.205C82.073 199.543 81.7816 199.833 81.4423 200.058C81.1029 200.284 80.7223 200.44 80.3224 200.518C79.9224 200.595 79.511 200.594 79.1118 200.512Z" fill="#A87244"/>
</svg>
