<svg width="90" height="76" viewBox="0 0 90 76" fill="none" xmlns="http://www.w3.org/2000/svg">
<g clip-path="url(#clip0_5_302)">
<path d="M24.93 1.66L74.37 13.21C74.37 13.21 91.24 16.53 88.07 31.67C84.9 46.81 82.31 59.14 82.31 59.14C82.31 59.14 80.06 72 64.56 70.25C49.06 68.5 30.24 62.25 30.24 62.25C30.24 62.25 29.24 75.35 14.9 74.13L9.99998 73C9.99998 73 18.29 68.18 19.21 59.7L13.08 58.26C13.08 58.26 -1.16002 52.61 1.41998 40.26C3.99998 27.91 7.17998 12.77 7.17998 12.77C7.17998 12.77 9.80998 -1.87 24.93 1.66Z" stroke="#1D3354" stroke-width="2.22" stroke-miterlimit="10"/>
<path d="M45.83 30.78C45.83 30.78 43.53 21.29 34.4 24C34.4 24 26.4 27.11 31.06 36C33.7183 41.1985 37.4104 45.7992 41.91 49.52" fill="#C62523"/>
<path d="M45.83 30.78C45.83 30.78 51.7 23.2 58.89 29.78C58.89 29.78 64.89 36.18 57.11 42.17C52.6266 45.6843 47.4443 48.2004 41.91 49.55" fill="#C62523"/>
</g>
<defs>
<clipPath id="clip0_5_302">
<rect width="89.58" height="75.3" fill="white"/>
</clipPath>
</defs>
</svg>
