<svg width="21" height="20" viewBox="0 0 21 20" fill="none" xmlns="http://www.w3.org/2000/svg">
<g clip-path="url(#clip0_9_307)">
<path d="M9.39157 14.0991C9.4449 14.0541 9.49907 14.0075 9.54907 13.9583C6.7649 16.69 2.2249 15.415 1.16074 11.5625V11.5566C-0.266763 6.31496 5.7524 2.33329 9.5474 5.99996C9.62657 6.08412 14.8691 11.675 14.5357 11.3191H14.5507C15.3332 12.1258 16.4649 12.0375 17.1382 11.3325C17.8624 10.5758 17.8882 9.34079 17.1774 8.57162C16.0549 7.27912 13.8507 8.24496 14.0616 10.1608L12.7999 8.87579L11.3366 7.47662C11.6382 6.87746 12.0341 6.35329 12.5299 5.89996C12.4766 5.94579 12.4224 5.99329 12.3724 6.04079C15.1674 3.29912 19.7041 4.60412 20.7607 8.43996V8.44496C22.1916 13.6858 16.1657 17.6675 12.3741 14.0008C12.2966 13.9175 7.0574 8.29162 7.38907 8.64829L7.38574 8.63579C7.3724 8.63579 7.3724 8.62329 7.3724 8.62329C6.55074 7.77579 5.43657 7.90329 4.7849 8.59746C4.0599 9.35412 4.0349 10.5891 4.7474 11.3466C5.82074 12.6091 8.0724 11.6733 7.86074 9.71912C7.9424 9.80329 10.7682 12.7041 10.5882 12.52C10.1307 13.4325 9.61907 13.8516 9.39157 14.0991Z" fill="#0F222B"/>
</g>
<defs>
<clipPath id="clip0_9_307">
<rect width="20" height="20" fill="white" transform="translate(0.960938)"/>
</clipPath>
</defs>
</svg>
